<?xml version="1.0" encoding="UTF-8" standalone="no"?><!DOCTYPE svg PUBLIC "-//W3C//DTD SVG 1.1//EN" "http://www.w3.org/Graphics/SVG/1.1/DTD/svg11.dtd"><svg width="47px" height="47px" version="1.1" xmlns="http://www.w3.org/2000/svg" xmlns:xlink="http://www.w3.org/1999/xlink" xml:space="preserve" xmlns:serif="http://www.serif.com/" style="fill-rule:evenodd;clip-rule:evenodd;stroke-linejoin:round;stroke-miterlimit:2;"><path d="M4.833,46.355L2.6,46.355C1.495,46.355 0.6,45.46 0.6,44.355L0.6,14.524C0.6,6.802 6.757,0.645 14.479,0.645L44.4,0.645C45.505,0.645 46.4,1.54 46.4,2.645L46.4,4.878C46.4,5.982 45.505,6.878 44.4,6.878L14.479,6.878C10.231,6.878 6.833,10.276 6.833,14.524L6.833,44.355C6.833,45.46 5.937,46.355 4.833,46.355ZM21.729,16.691L30.594,16.691C35.338,16.691 39.208,20.561 39.208,25.304L39.208,28.809C39.208,29.638 38.536,30.309 37.708,30.309L35.13,30.309C34.302,30.309 33.63,29.638 33.63,28.809L33.63,25.304C33.63,23.648 32.25,22.268 30.594,22.268L21.729,22.268C20.073,22.268 18.693,23.648 18.693,25.304L18.693,28.809C18.693,29.638 18.021,30.309 17.193,30.309L14.615,30.309C13.787,30.309 13.115,29.638 13.115,28.809L13.115,25.304C13.115,20.561 16.985,16.691 21.729,16.691Z" style="fill:rgb(128,255,128);"/></svg>